<?xml version="1.0" encoding="utf-8"?>
<!-- Generator: Adobe Illustrator 22.0.1, SVG Export Plug-In . SVG Version: 6.00 Build 0)  -->
<svg version="1.1" xmlns="http://www.w3.org/2000/svg" xmlns:xlink="http://www.w3.org/1999/xlink" x="0px" y="0px"
	 viewBox="0 0 106.6 31" style="enable-background:new 0 0 106.6 31;" xml:space="preserve">
<style type="text/css">
	g {
		fill: black;
	}
	.st0{fill:none;stroke:#FFFFFF;stroke-width:0.5;stroke-miterlimit:10;}
	.st1{fill:none;stroke:#000000;stroke-width:0.25;stroke-miterlimit:10;}
</style>
<g id="Layer_2">
</g>
<g id="Layer_1">
	<path d="M30.6,25.6c0,0.1,0,0.1,0.1,0.2c0,0,0.1,0.1,0.2,0.1l0.4,0.1v0.2h-3.9v-0.2l0.4-0.1c0.1,0,0.2-0.1,0.2-0.1
		c0,0,0.1-0.1,0.1-0.2v-7.2c0-0.1,0-0.1-0.1-0.2c0,0-0.1-0.1-0.2-0.1L27.4,18v-0.2h3.9V18l-0.4,0.1c-0.1,0-0.2,0-0.2,0.1
		c0,0-0.1,0.1-0.1,0.2v3.3h3.1v-3.3c0-0.1,0-0.1-0.1-0.2c0,0-0.1-0.1-0.2-0.1L33,18v-0.2h3.9V18l-0.4,0.1c-0.1,0-0.2,0.1-0.2,0.1
		c0,0-0.1,0.1-0.1,0.2v7.2c0,0.1,0,0.1,0.1,0.2c0,0,0.1,0.1,0.2,0.1l0.4,0.1v0.2H33v-0.2l0.4-0.1c0.1,0,0.2,0,0.2-0.1
		c0,0,0.1-0.1,0.1-0.2v-3.5h-3.1V25.6z"/>
	<path d="M44.3,25.6c-0.6,0.5-1.6,0.8-2.8,0.8c-1.2,0-2.1-0.3-2.8-0.8c-0.6-0.5-1-1.3-1-2.3s0.3-1.8,1-2.3c0.6-0.5,1.6-0.8,2.8-0.8
		c1.2,0,2.1,0.3,2.8,0.8c0.6,0.5,1,1.3,1,2.3S45,25.1,44.3,25.6z M40.4,24.9c0.1,0.4,0.2,0.7,0.4,0.8c0.2,0.2,0.4,0.3,0.8,0.3
		c0.3,0,0.6-0.1,0.8-0.3c0.2-0.2,0.3-0.5,0.4-0.8c0.1-0.4,0.1-0.9,0.1-1.6s0-1.3-0.1-1.6c-0.1-0.4-0.2-0.7-0.4-0.8
		c-0.2-0.2-0.4-0.3-0.8-0.3c-0.3,0-0.6,0.1-0.8,0.3c-0.2,0.2-0.3,0.5-0.4,0.8c-0.1,0.4-0.1,0.9-0.1,1.6S40.3,24.5,40.4,24.9z"/>
	<path d="M50.3,20.4c0.4-0.1,0.9-0.2,1.3-0.2c1,0,1.6,0.3,1.9,0.9c0.3-0.2,0.7-0.5,1.1-0.6c0.4-0.2,0.9-0.3,1.5-0.3
		c0.7,0,1.3,0.2,1.6,0.5c0.3,0.3,0.5,0.8,0.5,1.4v3.5c0,0.1,0,0.1,0.1,0.2c0,0,0.1,0.1,0.2,0.1l0.4,0.1v0.2h-2.5
		c-0.2,0-0.4-0.1-0.5-0.2c-0.1-0.1-0.1-0.3-0.1-0.5v-3.6c0-0.4-0.1-0.6-0.2-0.8c-0.1-0.2-0.3-0.2-0.6-0.2c-0.4,0-0.9,0.2-1.4,0.5
		c0,0.2,0.1,0.4,0.1,0.7v3.5c0,0.1,0,0.1,0.1,0.2c0,0,0.1,0.1,0.2,0.1l0.4,0.1v0.2H52c-0.2,0-0.4-0.1-0.5-0.2
		c-0.1-0.1-0.1-0.3-0.1-0.5v-3.6c0-0.4-0.1-0.6-0.2-0.8c-0.1-0.2-0.3-0.2-0.6-0.2c-0.4,0-0.9,0.2-1.3,0.5v4.3c0,0.1,0,0.2,0.1,0.2
		c0,0,0.1,0.1,0.2,0.1L50,26v0.2h-3.8V26l0.4-0.1c0.1,0,0.2-0.1,0.2-0.1c0,0,0.1-0.1,0.1-0.2v-4.5c0-0.1,0-0.1-0.1-0.2
		c0,0-0.1-0.1-0.2-0.1l-0.4-0.1v-0.2l2.9-0.4h0.2V21C49.6,20.8,49.9,20.6,50.3,20.4z"/>
	<path d="M62.7,25.1c0.3,0.5,0.8,0.7,1.6,0.7c0.4,0,0.7-0.1,1-0.2c0.3-0.1,0.6-0.3,0.9-0.5l0.2,0.2c-0.7,0.6-1.7,0.9-3,0.9
		c-1.1,0-2-0.3-2.6-0.8c-0.6-0.5-1-1.3-1-2.3c0-1,0.3-1.7,1-2.2c0.6-0.5,1.6-0.8,2.7-0.8c0.7,0,1.2,0.1,1.7,0.3s0.8,0.5,1,0.8
		s0.3,0.7,0.3,1.2c0,0.2,0,0.4-0.1,0.6h-4.2C62.3,24,62.4,24.7,62.7,25.1z M62.5,21c-0.2,0.4-0.2,1-0.3,1.8h2v-0.9
		c0-0.5-0.1-0.8-0.2-1.1c-0.1-0.2-0.3-0.3-0.7-0.3C63,20.5,62.7,20.7,62.5,21z"/>
	<path d="M71.1,25.9c0.2-0.1,0.3-0.3,0.3-0.6c0-0.2,0-0.3-0.1-0.5c-0.1-0.1-0.2-0.2-0.5-0.3c-0.2-0.1-0.5-0.2-1-0.4
		c-0.8-0.3-1.3-0.6-1.7-0.9s-0.5-0.7-0.5-1.2c0-0.6,0.2-1,0.7-1.3c0.4-0.3,1.1-0.4,2-0.4c0.5,0,0.9,0,1.4,0.1c0.4,0.1,0.8,0.2,1,0.3
		l-0.1,1.4h-0.2c-0.2-0.5-0.5-0.9-0.8-1.2c-0.3-0.3-0.7-0.4-1.3-0.4c-0.4,0-0.7,0-0.9,0.1c-0.2,0.1-0.3,0.3-0.3,0.5
		c0,0.2,0,0.3,0.1,0.4c0.1,0.1,0.2,0.2,0.4,0.3c0.2,0.1,0.5,0.2,1,0.4c0.7,0.3,1.2,0.5,1.5,0.7c0.3,0.2,0.6,0.4,0.7,0.7
		c0.2,0.2,0.2,0.6,0.2,0.9c0,0.6-0.2,1-0.7,1.3c-0.5,0.3-1.2,0.4-2.1,0.4c-0.5,0-1,0-1.5-0.1c-0.5-0.1-0.9-0.2-1.2-0.3l0.2-1.6h0.2
		c0.1,0.6,0.4,1.1,0.8,1.4c0.4,0.3,0.8,0.4,1.4,0.4C70.7,26,71,26,71.1,25.9z"/>
	<path d="M78.7,23v-0.3h2.8V23H78.7z"/>
	<path d="M87.4,20.2c0.3,0,0.5,0,0.6,0.1l-0.2,1.9h-0.1l-2.5-0.5v3.9c0,0.1,0,0.2,0.1,0.2c0,0,0.1,0.1,0.2,0.1L86,26v0.2h-3.8V26
		l0.4-0.1c0.1,0,0.2-0.1,0.2-0.1c0,0,0.1-0.1,0.1-0.2v-4.5c0-0.1,0-0.1-0.1-0.2c0,0-0.1-0.1-0.2-0.1l-0.4-0.1v-0.2l2.9-0.4h0.2v1.2
		C86,20.6,86.7,20.2,87.4,20.2z"/>
	<path d="M91.9,25.1c0.3,0.5,0.8,0.7,1.6,0.7c0.4,0,0.7-0.1,1-0.2c0.3-0.1,0.6-0.3,0.9-0.5l0.2,0.2c-0.7,0.6-1.7,0.9-3,0.9
		c-1.1,0-2-0.3-2.6-0.8c-0.6-0.5-1-1.3-1-2.3c0-1,0.3-1.7,1-2.2c0.6-0.5,1.6-0.8,2.7-0.8c0.7,0,1.2,0.1,1.7,0.3
		c0.5,0.2,0.8,0.5,1,0.8c0.2,0.3,0.3,0.7,0.3,1.2c0,0.2,0,0.4-0.1,0.6h-4.2C91.5,24,91.6,24.7,91.9,25.1z M91.8,21
		c-0.2,0.4-0.2,1-0.3,1.8h2v-0.9c0-0.5-0.1-0.8-0.2-1.1c-0.1-0.2-0.3-0.3-0.7-0.3C92.2,20.5,91.9,20.7,91.8,21z"/>
	<path d="M100.4,25.9c0.2-0.1,0.3-0.3,0.3-0.6c0-0.2,0-0.3-0.1-0.5c-0.1-0.1-0.2-0.2-0.5-0.3c-0.2-0.1-0.5-0.2-1-0.4
		c-0.8-0.3-1.3-0.6-1.7-0.9s-0.5-0.7-0.5-1.2c0-0.6,0.2-1,0.7-1.3c0.4-0.3,1.1-0.4,2-0.4c0.5,0,0.9,0,1.4,0.1s0.8,0.2,1,0.3
		l-0.1,1.4h-0.2c-0.2-0.5-0.5-0.9-0.8-1.2c-0.3-0.3-0.7-0.4-1.3-0.4c-0.4,0-0.7,0-0.9,0.1s-0.3,0.3-0.3,0.5c0,0.2,0,0.3,0.1,0.4
		c0.1,0.1,0.2,0.2,0.4,0.3c0.2,0.1,0.5,0.2,1,0.4c0.7,0.3,1.2,0.5,1.5,0.7c0.3,0.2,0.6,0.4,0.7,0.7c0.2,0.2,0.2,0.6,0.2,0.9
		c0,0.6-0.2,1-0.7,1.3c-0.5,0.3-1.2,0.4-2.1,0.4c-0.5,0-1,0-1.5-0.1c-0.5-0.1-0.9-0.2-1.2-0.3l0.2-1.6h0.2c0.1,0.6,0.4,1.1,0.8,1.4
		c0.4,0.3,0.8,0.4,1.4,0.4C99.9,26,100.2,26,100.4,25.9z"/>
	<g>
		<polygon points="75,19.8 77.3,19.8 77.9,24.3 76.2,26.4 74.4,24.4 		"/>
		<polygon points="74.8,17.6 75,19.3 77.4,19.3 77.5,17.6 		"/>
	</g>
	<g>
		<path d="M13.6,26.2v-5.6h4.2v5.6h4.3v-8.4h2.7l-9.1-8.4l-9.1,8.4h2.7v8.4H13.6z"/>
	</g>
	<rect x="13.1" y="19.9" width="4.9" height="3.1"/>
	<polyline class="st0" points="14.6,23.1 14.6,22.2 16.7,22.2 16.7,23.1 	"/>
	<line class="st1" x1="13.6" y1="24.7" x2="17.8" y2="24.7"/>
	<rect x="14.2" y="24.4" width="1.1" height="0.6"/>
	<rect x="16.1" y="24.4" width="1.1" height="0.6"/>
</g>
</svg>
