<svg width="70" height="72" viewBox="0 0 70 72" fill="none" xmlns="http://www.w3.org/2000/svg">
<path d="M67.6359 22.2966L55.3349 10.0604C54.2002 8.9321 52.3533 8.93181 51.2175 10.0606L49.7303 11.5397H41.1391C40.031 11.5397 39.0261 11.9872 38.2968 12.7104L38.0711 12.4857C37.6237 12.0408 37.0279 11.7958 36.3936 11.7958C35.759 11.7958 35.1632 12.0408 34.7159 12.4858L31.6948 15.491C31.6944 15.4913 31.6939 15.4916 31.6937 15.492L31.3181 15.8654C30.8379 15.841 30.3545 15.8282 29.8681 15.8282C24.4301 15.8282 19.3476 17.3702 15.0381 20.0374C13.5659 17.8054 11.0535 16.3315 8.20638 16.3315C3.68146 16.3315 0 20.0531 0 24.6273C0 27.803 1.77519 30.566 4.37447 31.9596C2.66791 35.5691 1.71063 39.5958 1.71063 43.8416C1.71091 59.2885 14.3423 71.8553 29.8682 71.8553C33.8552 71.8553 37.709 71.0427 41.3221 69.4402C44.8125 67.8921 47.9055 65.6881 50.5151 62.8896C50.9116 62.4645 50.8883 61.7984 50.4632 61.4018C50.0377 61.0053 49.372 61.0285 48.9754 61.4537C46.5603 64.0437 43.6981 66.0832 40.4687 67.5157C37.1259 68.9985 33.5592 69.7502 29.8682 69.7502C15.5031 69.7502 3.81605 58.1277 3.81605 43.8419C3.81605 39.8573 4.72898 36.0822 6.35204 32.7065C6.94835 32.8464 7.56867 32.9228 8.20652 32.9228C12.7316 32.9228 16.4132 29.2015 16.4132 24.6276C16.4132 23.6871 16.2553 22.7838 15.9689 21.9404C19.8258 19.5105 24.3646 18.0593 29.2307 17.9424L16.5395 30.5659C16.0908 31.0123 15.8437 31.6076 15.8435 32.2421C15.8435 32.8768 16.0907 33.4724 16.5396 33.9194L18.964 36.3309C17.4753 38.4645 16.601 41.0532 16.601 43.8419C16.601 48.4725 18.9722 52.6833 22.944 55.1059C23.4403 55.4082 24.0878 55.2514 24.3908 54.7553C24.6934 54.2591 24.5365 53.6114 24.0402 53.3085C20.7002 51.2713 18.7061 47.7324 18.7061 43.8419C18.7061 41.633 19.3621 39.5754 20.4861 37.8449L35.8958 53.1724C34.156 54.2881 32.088 54.9393 29.8682 54.9393C29.2868 54.9393 28.8157 55.4104 28.8157 55.9919C28.8157 56.5733 29.2868 57.0444 29.8682 57.0444C32.6726 57.0444 35.2758 56.173 37.4209 54.6895L39.9256 57.1808C40.3731 57.626 40.9689 57.8712 41.6034 57.8712C42.2379 57.8712 42.8338 57.626 43.2809 57.181L46.3018 54.1761C46.3022 54.1757 46.3028 54.1753 46.3032 54.1748L55.9069 44.622C55.7724 49.0987 54.4819 53.4567 52.1514 57.2728C51.8484 57.7689 52.0049 58.4167 52.501 58.7197C52.9971 59.0226 53.645 58.8658 53.9479 58.3697C56.6155 54.0018 58.0256 48.9782 58.0256 43.8417C58.0256 43.4071 58.0146 42.9751 57.9944 42.5455L61.4576 39.1007C61.9062 38.6541 62.1533 38.0588 62.1533 37.4244C62.1533 36.7899 61.9062 36.1946 61.4573 35.7477L59.8518 34.1508L62.4076 31.6086C62.8197 31.1987 62.8215 30.5322 62.4115 30.1202C62.0013 29.7078 61.3348 29.7064 60.9229 30.1162L47.0349 43.9303C46.7235 44.2397 46.1978 44.2397 45.8864 43.9303L45.3083 43.3553C45.1581 43.2061 45.0755 43.0063 45.0755 42.7924C45.0755 42.5786 45.1581 42.3786 45.3084 42.2292L53.8957 33.687C54.0943 33.4895 54.206 33.221 54.206 32.9409C54.206 32.6608 54.0944 32.3923 53.896 32.1948L53.1996 31.5017C52.789 31.0929 52.1254 31.0929 51.7148 31.5014L41.348 41.8131C41.0365 42.1228 40.511 42.1229 40.1995 41.8129L39.6215 41.2384C39.4714 41.089 39.3888 40.8889 39.3888 40.6749C39.3888 40.461 39.4714 40.2609 39.6213 40.1117L49.9884 29.7999C50.187 29.6024 50.2987 29.3338 50.2987 29.0537C50.2987 28.7736 50.187 28.505 49.9884 28.3075L49.2918 27.6145C48.8811 27.2061 48.2179 27.2061 47.8072 27.6145L37.4407 37.9263C37.1293 38.2357 36.6034 38.2357 36.2923 37.9263L35.7136 37.3507C35.5637 37.2016 35.4811 37.0017 35.4811 36.7877C35.4811 36.5739 35.5637 36.374 35.7138 36.2246L46.0807 25.9131C46.2793 25.7156 46.391 25.447 46.391 25.1668C46.391 24.8866 46.2793 24.618 46.0806 24.4206L45.3838 23.7278C44.9732 23.3197 44.31 23.3196 43.8994 23.728L34.7534 32.8251C34.4423 33.1349 33.9163 33.1347 33.6051 32.8253L33.0268 32.25C32.8768 32.1008 32.794 31.9007 32.794 31.6868C32.794 31.4731 32.8766 31.2729 33.0266 31.1236L44.95 19.2641C45.2522 18.9635 45.3434 18.5103 45.1807 18.1162C45.0182 17.7223 44.6341 17.4652 44.2077 17.4652H41.1389C40.0769 17.4652 39.2127 16.6081 39.2127 15.5546C39.2127 14.5014 40.0767 13.6447 41.139 13.6447H50.1646C50.4427 13.6447 50.7096 13.5346 50.9068 13.3383L52.7017 11.5533C53.0132 11.2435 53.5391 11.2437 53.8504 11.5529L66.1514 23.7892C66.3015 23.9385 66.3842 24.1382 66.3842 24.3519C66.3842 24.5657 66.3015 24.7655 66.1512 24.9151L64.5715 26.4861C64.1594 26.8961 64.1577 27.5624 64.5676 27.9747C64.9777 28.3868 65.6439 28.3887 66.0561 27.9787L67.6356 26.408C68.1862 25.8606 68.4893 25.1304 68.4893 24.3521C68.4893 23.5737 68.1863 22.8437 67.6359 22.2966ZM8.20652 30.8177C4.84223 30.8177 2.10528 28.0408 2.10528 24.6276C2.10528 21.214 4.84223 18.4369 8.20652 18.4369C11.571 18.4369 14.308 21.214 14.308 24.6276C14.308 28.0408 11.5711 30.8177 8.20652 30.8177ZM41.7962 55.6884C41.7286 55.7558 41.6463 55.7659 41.6034 55.7659C41.5603 55.7659 41.4781 55.7559 41.4103 55.6883L18.0245 32.4271C17.9619 32.3648 17.9487 32.2922 17.9487 32.2424C17.9487 32.1926 17.9619 32.1203 18.0242 32.0581L19.3807 30.7089C19.4371 30.7796 19.4968 30.8482 19.5619 30.9131L42.9479 54.1747C43.0102 54.2366 43.076 54.2939 43.1438 54.3479L41.7962 55.6884ZM41.1394 19.5706H41.6574L31.5427 29.6312C30.9924 30.1785 30.6892 30.9087 30.6894 31.6872C30.6895 32.4656 30.9927 33.1956 31.5429 33.7427L32.1212 34.3178C32.6131 34.8069 33.2383 35.0841 33.8815 35.1495C33.5531 35.6275 33.3764 36.1935 33.3764 36.7878C33.3764 37.5663 33.6794 38.2964 34.2297 38.8434L34.8081 39.4188C35.4904 40.0977 36.4302 40.3678 37.3175 40.2311C37.2953 40.3765 37.2841 40.5247 37.2841 40.6746C37.2841 41.4529 37.5868 42.1829 38.1374 42.7308L38.7153 43.3052C39.8497 44.4347 41.6967 44.4354 42.8328 43.3056L42.9921 43.1473C43.0698 43.7908 43.3585 44.3848 43.8244 44.848L44.4024 45.4227C44.9699 45.9871 45.7153 46.2695 46.4609 46.2694C47.2064 46.2694 47.9521 45.987 48.5197 45.4227L58.3594 35.6353L59.9727 37.24C60.0351 37.3022 60.0483 37.3746 60.0483 37.4244C60.0483 37.4741 60.0351 37.5465 59.9729 37.6085L44.8186 52.6823C44.751 52.7497 44.6687 52.7598 44.6257 52.7598C44.5827 52.7598 44.5003 52.7498 44.4326 52.6822L21.0467 29.4207C20.9841 29.3584 20.9709 29.286 20.9709 29.2363C20.9711 29.1866 20.9841 29.1142 21.0466 29.052L36.2008 13.9785C36.2684 13.9113 36.3508 13.9011 36.3939 13.9011C36.437 13.9011 36.5193 13.9112 36.587 13.9785L37.2218 14.6101C37.1481 14.9132 37.1081 15.2294 37.1081 15.5549C37.1081 17.7692 38.9165 19.5706 41.1394 19.5706Z" fill="#313A3A"/>
<path d="M5.65304 0C3.10134 0 1.02539 2.10149 1.02539 4.68449C1.02539 7.26735 3.10134 9.36884 5.65304 9.36884C8.20461 9.36884 10.2804 7.26735 10.2804 4.68449C10.2803 2.10149 8.20447 0 5.65304 0ZM5.65304 7.2637C4.26211 7.2637 3.13053 6.10672 3.13053 4.68449C3.13053 3.26226 4.26211 2.10514 5.65304 2.10514C7.04369 2.10514 8.17528 3.26226 8.17528 4.68449C8.17528 6.10672 7.04384 7.2637 5.65304 7.2637Z" fill="#313A3A"/>
<path d="M58.0998 58.8049C55.2401 58.8049 52.9135 61.161 52.9135 64.0569C52.9135 66.9529 55.2401 69.309 58.0998 69.309C60.9594 69.309 63.2857 66.9529 63.2857 64.0569C63.2857 61.161 60.9596 58.8049 58.0998 58.8049ZM58.0998 67.2037C56.4007 67.2037 55.0186 65.792 55.0186 64.0568C55.0186 62.3216 56.4008 60.9099 58.0998 60.9099C59.7985 60.9099 61.1806 62.3216 61.1806 64.0568C61.1806 65.7921 59.7985 67.2037 58.0998 67.2037Z" fill="#313A3A"/>
<path d="M22.7568 8.12667C20.3847 7.38019 20.0639 7.05544 19.3235 4.65208C19.1162 3.97941 18.5056 3.52751 17.8043 3.52751C17.1017 3.52751 16.4912 3.9804 16.2858 4.65236C15.5453 7.05516 15.2244 7.37991 12.852 8.12667C12.1854 8.3362 11.7375 8.9481 11.7375 9.64925C11.7375 10.3505 12.1852 10.9626 12.8517 11.1725C15.2245 11.9193 15.5453 12.244 16.2851 14.6449C16.4911 15.3188 17.1016 15.7715 17.8044 15.7715C18.506 15.7715 19.1166 15.3196 19.3238 14.647C20.0639 12.2438 20.3849 11.919 22.7568 11.1724C23.4232 10.9627 23.8709 10.3507 23.8709 9.64925C23.8709 8.94782 23.423 8.33592 22.7568 8.12667ZM17.8046 12.6263C17.1616 11.0748 16.3865 10.2981 14.8397 9.64981C16.3863 9.00157 17.1614 8.22477 17.8046 6.67329C18.4473 8.22491 19.222 9.00143 20.7689 9.64981C19.2226 10.2981 18.4475 11.075 17.8046 12.6263Z" fill="#313A3A"/>
<path d="M68.9436 50.0541C66.9833 49.4372 66.7473 49.198 66.135 47.2106C65.9381 46.5731 65.3587 46.1446 64.6935 46.1446C64.0269 46.1446 63.4477 46.574 63.2525 47.2115C62.6406 49.1979 62.4044 49.4369 60.4435 50.0541C59.8113 50.253 59.3866 50.8333 59.3866 51.4981C59.3866 52.163 59.8113 52.7436 60.4435 52.9425C62.4042 53.5594 62.6404 53.7986 63.2518 55.7828C63.4471 56.4223 64.0265 56.8519 64.6934 56.8519C65.359 56.8519 65.9382 56.4233 66.135 55.7851C66.747 53.7983 66.9832 53.5592 68.9428 52.9425C69.5752 52.7438 70 52.1633 70 51.498C70.0004 50.833 69.5756 50.2527 68.9436 50.0541ZM64.6939 53.6244C64.2078 52.5876 63.6091 51.9879 62.5742 51.4984C63.6091 51.009 64.2076 50.4093 64.6939 49.3723C65.1801 50.4095 65.7784 51.0089 66.8132 51.4984C65.7786 51.9878 65.1801 52.5873 64.6939 53.6244Z" fill="#313A3A"/>
<path d="M36.4658 20.0264L35.4834 19.044C35.0722 18.6331 34.4059 18.6331 33.9948 19.044C33.5838 19.4553 33.5838 20.1216 33.9948 20.5327L34.9771 21.5151C35.1827 21.7205 35.4521 21.8232 35.7215 21.8232C35.9908 21.8232 36.2602 21.7205 36.4658 21.5151C36.8769 21.1039 36.8769 20.4375 36.4658 20.0264Z" fill="#313A3A"/>
<path d="M33.3783 25.0788L32.3959 24.0964C31.9847 23.6854 31.3184 23.6854 30.9073 24.0964C30.4962 24.5076 30.4962 25.1739 30.9073 25.585L31.8896 26.5674C32.0952 26.7728 32.3646 26.8756 32.6339 26.8756C32.9032 26.8756 33.1727 26.7728 33.3783 26.5674C33.7894 26.1562 33.7894 25.4898 33.3783 25.0788Z" fill="#313A3A"/>
<path d="M27.9049 27.7451L26.9224 26.7627C26.5112 26.3518 25.8448 26.3518 25.4338 26.7627C25.0227 27.1739 25.0227 27.8403 25.4338 28.2513L26.4162 29.2337C26.6218 29.4392 26.8912 29.5419 27.1606 29.5419C27.4299 29.5419 27.6993 29.4392 27.9049 29.2337C28.316 28.8225 28.316 28.1562 27.9049 27.7451Z" fill="#313A3A"/>
<path d="M45.1671 47.9544L44.1846 46.972C43.7734 46.5611 43.1071 46.5611 42.696 46.972C42.2849 47.3832 42.2849 48.0496 42.696 48.4607L43.6784 49.443C43.884 49.6485 44.1534 49.7512 44.4228 49.7512C44.6921 49.7512 44.9615 49.6485 45.1671 49.443C45.5782 49.0318 45.5782 48.3655 45.1671 47.9544Z" fill="#313A3A"/>
</svg>
