<svg width="40" height="40" viewBox="0 0 40 40" fill="none" xmlns="http://www.w3.org/2000/svg">
<path d="M14.875 11.6094L12.5781 19.7578C12.086 21.5391 14.1953 22.2344 14.711 20.5625L16.7656 13.0469H17.3438L13.8125 26.25H17.1094V36.1719C17.1094 37.9688 19.6094 37.9688 19.6094 36.1719V26.25H20.3906V36.1719C20.3906 37.9688 22.8125 37.9688 22.8125 36.1719V26.25H26.2031L22.5938 13.0469H23.25L25.3047 20.5625C25.8125 22.2734 27.9063 21.5391 27.4375 19.7656L25.1406 11.6094C24.8281 10.6875 23.7188 9.0625 21.8594 8.98438H18.1641C16.2422 9.0625 15.1406 10.6719 14.875 11.6094ZM22.8594 5.40625C22.8594 3.79687 21.5781 2.49219 20 2.49219C18.4219 2.49219 17.1406 3.79687 17.1406 5.40625C17.1406 7.01563 18.4219 8.32031 20 8.32031C21.5781 8.32031 22.8594 7.01563 22.8594 5.40625Z" fill="#F4D25A"/>
</svg>
