<svg width="70" height="65" viewBox="0 0 70 65" fill="none" xmlns="http://www.w3.org/2000/svg">
<path d="M69.5995 62.4707L60.8201 53.6528C59.7894 52.617 58.5156 51.969 57.1815 51.7088V33.9222C57.4683 33.9464 57.7541 33.9582 58.0392 33.9582C60.7496 33.9582 63.3654 32.8896 65.3329 30.9135C67.8563 28.379 68.8929 24.7749 68.1062 21.2717C67.9903 20.7546 67.5882 20.3512 67.0734 20.2342C63.586 19.4447 59.9971 20.4858 57.4742 23.0203C57.3738 23.1206 57.2771 23.2236 57.1815 23.3272V16.1404C59.2809 14.5274 60.5135 12.0466 60.5135 9.36026C60.5135 6.41325 59.0299 3.71192 56.545 2.13489C56.0985 1.85167 55.5302 1.85167 55.0838 2.13489C52.5988 3.71192 51.1152 6.41325 51.1152 9.36026C51.1152 12.0466 52.3478 14.5274 54.4472 16.1404V17.9427C52.1988 15.7065 49.0147 14.7897 45.9199 15.4908C45.405 15.6078 45.0029 16.0117 44.887 16.5282C44.1858 19.6522 45.1102 22.8664 47.3602 25.1268C49.1151 26.8894 51.4479 27.8421 53.8651 27.8421C54.0589 27.8421 54.2528 27.834 54.4472 27.8222V33.3375C54.2693 33.131 54.084 32.9293 53.8896 32.7341C51.1739 30.007 47.3234 28.8709 43.5679 29.6814C43.264 27.5513 41.4365 25.9089 39.234 25.9089H30.4482L26.3547 20.2578C25.7758 19.4581 25.0548 18.7886 24.2425 18.2689C26.6281 17.2679 28.3093 14.9008 28.3093 12.1463V8.86355H30.4173C31.1724 8.86355 31.7844 8.24883 31.7844 7.49035C31.7844 6.73187 31.1724 6.11716 30.4173 6.11716H28.6853V3.91736C28.6853 1.75726 26.9357 0 24.7851 0H18.3214C16.1707 0 14.4212 1.75726 14.4212 3.91736V6.11716H12.6892C11.9341 6.11716 11.322 6.73187 11.322 7.49035C11.322 8.24883 11.9341 8.86355 12.6892 8.86355H15.1031V12.1463C15.1031 14.2844 16.1168 16.1887 17.6859 17.4026C14.5387 18.4105 12.2523 21.3741 12.2523 24.865V39.8168C12.2523 43.0304 14.0003 45.84 16.5905 47.3414V56.1637H4.30664C1.93222 56.1637 0 58.1044 0 60.4892C0 62.8741 1.93222 64.8148 4.30664 64.8148H6.06689C6.82205 64.8148 7.43408 64.2001 7.43408 63.4416C7.43408 62.6831 6.82205 62.0684 6.06689 62.0684H4.30664C3.43987 62.0684 2.73438 61.3598 2.73438 60.4892C2.73438 59.6187 3.43987 58.9101 4.30664 58.9101H17.9577C18.7128 58.9101 19.3249 58.2954 19.3249 57.5369V48.3542C19.8354 48.4491 20.3609 48.5011 20.8987 48.5011H23.6069V57.3829C23.6069 59.9668 21.514 62.0684 18.942 62.0684H17.0044C16.2492 62.0684 15.6372 62.6831 15.6372 63.4416C15.6372 64.2001 16.2492 64.8148 17.0044 64.8148H18.942C23.0222 64.8148 26.3413 61.4811 26.3413 57.3829V48.5011H31.3417V60.4892C31.3417 62.8741 33.2739 64.8148 35.6483 64.8148C38.0233 64.8148 39.955 62.8741 39.955 60.4892V45.5901C39.955 41.492 36.6364 38.1582 32.5562 38.1582H25.9702V34.6405C26.1037 34.6834 26.2441 34.7064 26.3878 34.7064H39.234C40.3502 34.7064 41.3697 34.2843 42.1441 33.5913C42.2269 36.4326 43.3756 39.157 45.435 41.2259C47.5744 43.3747 50.4182 44.536 53.3646 44.536C53.7246 44.536 54.0856 44.5178 54.4472 44.4829V51.7137C53.1206 51.9765 51.8554 52.6223 50.83 53.6528L42.0912 62.43C41.5572 62.9658 41.5572 63.8353 42.0912 64.3717C42.6247 64.9081 43.491 64.9081 44.0245 64.3717L52.7633 55.5951C54.4514 53.899 57.1981 53.899 58.8868 55.5951L67.6662 64.4125C67.9332 64.6807 68.283 64.8148 68.6328 64.8148C68.9826 64.8148 69.3324 64.6807 69.5995 64.4125C70.1335 63.8761 70.1335 63.0066 69.5995 62.4707V62.4707ZM54.4253 25.071C52.5304 25.2325 50.6623 24.5587 49.2941 23.185C47.9263 21.8107 47.2545 19.9349 47.4163 18.0312C49.3111 17.8692 51.1793 18.5435 52.5475 19.9172C53.9153 21.2915 54.5866 23.1678 54.4253 25.071ZM59.4075 24.9621C61.0508 23.3121 63.3077 22.522 65.586 22.7661C65.8285 25.0533 65.0423 27.3212 63.3996 28.9712C61.7563 30.6217 59.4994 31.4113 57.2211 31.1672C57.1965 30.9344 57.1853 30.7022 57.1815 30.4705V30.2033C57.2195 28.253 57.996 26.3798 59.4075 24.9621V24.9621ZM55.8144 5.00358C57.0582 6.09624 57.7792 7.66897 57.7792 9.36079C57.7792 11.0521 57.0582 12.6248 55.8144 13.7175C54.5705 12.6248 53.8496 11.0526 53.8496 9.36079C53.8496 7.66897 54.5705 6.09624 55.8144 5.00358ZM25.575 12.1463C25.575 14.2887 23.8393 16.0321 21.7062 16.0321C19.5727 16.0321 17.8375 14.2887 17.8375 12.1463V8.86355H25.575V12.1463ZM17.1555 3.91736C17.1555 3.27153 17.6784 2.74639 18.3214 2.74639H24.7851C25.4281 2.74639 25.9509 3.27153 25.9509 3.91736V6.11716H17.1555V3.91736ZM32.5562 40.9046C35.1282 40.9046 37.2206 43.0068 37.2206 45.5901V60.4892C37.2206 61.3598 36.5157 62.0684 35.6483 62.0684C34.7816 62.0684 34.0761 61.3598 34.0761 60.4892V47.128C34.0761 46.37 33.4641 45.7548 32.7089 45.7548H20.8982C18.009 45.7548 15.5982 43.6612 15.0877 40.9046H32.5562ZM39.234 31.96H27.0009L24.345 28.961C23.843 28.394 22.9789 28.3436 22.4144 28.8473C21.8504 29.3515 21.7997 30.2194 22.3017 30.7864L23.2358 31.8404V38.1582H14.9867V24.865C14.9867 22.0612 17.2581 19.7799 20.0496 19.7799C21.6635 19.7799 23.1941 20.5625 24.1437 21.8735L28.6469 28.0899C28.9043 28.4455 29.315 28.6553 29.7523 28.6553H39.234C40.1414 28.6553 40.8794 29.3966 40.8794 30.3079C40.8794 31.2187 40.1408 31.96 39.234 31.96V31.96ZM54.3895 41.728C51.8047 42.0375 49.2332 41.1567 47.3688 39.2841C45.5044 37.4115 44.6264 34.8282 44.9351 32.232C47.5194 31.9209 50.0919 32.8038 51.9563 34.6764C53.559 36.2861 54.4301 38.4216 54.4472 40.6385V40.8327C54.4429 41.1304 54.4247 41.4292 54.3895 41.728Z" fill="#313A3A"/>
</svg>
