<svg width="70" height="75" viewBox="0 0 70 75" fill="none" xmlns="http://www.w3.org/2000/svg">
<path d="M48.7502 26.2496C48.7461 22.7996 45.9502 20.0037 42.5002 19.9996H26.8754C25.3023 20.0021 23.8214 20.7426 22.8754 21.9996L20.2504 25.4671L16.8755 29.9995H11.2505V19.9996H8.75055V29.9995H7.50056C6.81026 29.9995 6.25058 30.5592 6.25058 31.2495V36.2495C6.25058 36.9398 6.81026 37.4995 7.50056 37.4995H8.75055V64.9992H0.000632655V67.4992H2.01561L0.0643819 73.3541C-0.153741 74.0091 0.200318 74.7169 0.855312 74.9351C0.982811 74.9776 1.11625 74.9991 1.25062 74.9991H18.7505C19.4408 74.9993 20.0006 74.4398 20.0008 73.7494C20.0008 73.6151 19.9792 73.4816 19.9367 73.3541L17.9855 67.4992H20.0005V64.9992H11.2505V37.4995H19.9642C21.1709 37.499 22.3036 36.9181 23.0079 35.9382L26.7979 30.7358L26.8066 30.7183L26.8204 30.7058L27.5004 29.7058V32.4195L26.7129 39.1244L25.9254 45.8131L24.8442 54.9993H27.5004V68.4542L25.1317 73.1904C24.8231 73.8079 25.0735 74.5587 25.691 74.8672C25.8648 74.954 26.0562 74.9991 26.2504 74.9991H43.7502C44.4405 75.0029 45.0033 74.4463 45.0071 73.756C45.0082 73.5598 44.963 73.366 44.8752 73.1904L42.5002 68.4542V54.9993H45.1565L44.5677 49.9993H48.7502V26.2496V26.2496ZM39.4578 22.4996H40.0003V26.2496H37.2078L39.4578 22.4996ZM36.5428 22.4996L35.0003 25.0696L33.4578 22.4996H36.5428ZM30.0004 22.4996H30.5429L32.7928 26.2496H30.0004V22.4996ZM30.0004 28.7495H40.0003V31.2495H29.9929L30.0004 28.7495ZM28.4091 46.1031L28.6804 43.7907L29.8616 33.7495H40.139L41.5915 46.1031C41.6723 46.7888 41.182 47.41 40.4964 47.4908C40.4479 47.4964 40.3992 47.4994 40.3503 47.4994H29.6504C28.9601 47.4992 28.4004 46.9395 28.4005 46.2492C28.4005 46.2005 28.4033 46.1517 28.4091 46.1031ZM15.3492 67.4992L17.0167 72.4991H13.7505V69.9992H11.2505V72.4991H8.75055V69.9992H6.25058V72.4991H2.98436L4.65184 67.4992H15.3492ZM20.9817 34.4757C20.747 34.8045 20.3681 34.9995 19.9642 34.9995H8.75055V32.4995H17.5005C17.8939 32.4995 18.2644 32.3142 18.5005 31.9995L21.4617 28.0258L24.0867 30.212L20.9817 34.4757ZM27.5004 26.2496C27.088 26.2496 26.7021 26.453 26.4691 26.7933L25.5329 28.1595L24.2754 27.1121L22.9667 26.0208L24.8754 23.4996C25.3488 22.8716 26.089 22.5016 26.8754 22.4996H27.5004V26.2496V26.2496ZM33.7503 72.4991H28.2729L29.5229 69.9992H33.7503V72.4991V72.4991ZM33.7503 67.4992H30.0004V54.9993H33.7503V67.4992ZM36.2503 72.4991V69.9992H40.4778L41.7278 72.4991H36.2503ZM36.2503 67.4992V54.9993H40.0003V67.4992H36.2503ZM27.6566 52.4993L27.9966 49.6018C28.5102 49.8592 29.076 49.9953 29.6504 49.9993H40.3503C40.9253 49.9956 41.4917 49.8592 42.0053 49.6006L42.344 52.4993H27.6566ZM46.2502 47.4994H44.8227L42.5002 32.4033V31.2495H46.2502V47.4994ZM46.2502 28.7495H42.5002V22.4996C44.5713 22.4996 46.2502 24.1785 46.2502 26.2496V28.7495Z" fill="#313A3A"/>
<path d="M41.3192 0.000118325C39.406 -0.0130066 37.6531 1.06667 36.804 2.78103C36.2201 2.59806 35.6122 2.50322 35.0003 2.49978C31.5503 2.50385 28.7544 5.29976 28.7504 8.74973V11.2497C28.7504 14.7014 31.5486 17.4996 35.0003 17.4996C35.0048 17.4996 35.0095 17.4996 35.0141 17.4996C35.2128 17.4996 35.4116 17.4896 35.6103 17.4709C38.8554 17.0756 41.2845 14.3036 41.2503 11.0347V9.99972C44.0116 10.0188 46.2655 7.79567 46.2846 5.03429C46.3035 2.27307 44.0804 0.0191807 41.3192 0.000118325ZM31.2503 8.74973C31.2503 6.67865 32.9292 4.99976 35.0003 4.99976C36.0072 4.99695 36.9709 5.40819 37.6653 6.13725C37.6365 6.161 37.6115 6.18975 37.5815 6.21475C37.1614 6.56256 36.7165 6.87927 36.2503 7.16224C36.1428 7.22849 36.0291 7.28724 35.9191 7.34974C35.5316 7.57224 35.1353 7.77723 34.7341 7.96473C34.5966 8.02848 34.4616 8.08973 34.3241 8.15348C33.8303 8.36848 33.3328 8.56848 32.8491 8.73723C32.8228 8.74723 32.7978 8.75348 32.7716 8.76223C32.2953 8.92722 31.8366 9.06597 31.3966 9.18847L31.2503 9.22972V8.74973V8.74973ZM35.3753 14.9822C34.3178 15.0922 33.2638 14.7436 32.4803 14.0247C31.8436 13.4441 31.4253 12.6627 31.2953 11.8109L31.3641 11.7909C31.8878 11.6584 32.4316 11.5035 32.9891 11.3272C33.1278 11.2835 33.2641 11.2347 33.4028 11.1885C33.8616 11.0347 34.3203 10.8647 34.7778 10.6772C34.9178 10.621 35.0566 10.5685 35.1966 10.5085C35.7653 10.2585 36.3215 9.99597 36.874 9.69597C36.9765 9.63972 37.0715 9.57097 37.1728 9.51722C37.6259 9.25644 38.0648 8.97191 38.4878 8.66473C38.569 8.60473 38.6615 8.55973 38.7378 8.49848C38.7378 8.58223 38.7465 8.66598 38.7465 8.74848L38.7503 11.0347C38.7929 13.0173 37.3404 14.7162 35.3753 14.9822ZM41.2503 7.49974C41.2028 7.49974 41.1515 7.48849 41.1028 7.48599C40.8159 6.11444 40.0725 4.8807 38.994 3.98602C39.389 3.09056 40.2717 2.50931 41.2503 2.49978C42.631 2.49978 43.7502 3.61899 43.7502 4.99976C43.7502 6.38053 42.6309 7.49974 41.2503 7.49974Z" fill="#313A3A"/>
<path d="M60.0002 47.4994C54.4774 47.4994 50.0002 51.9765 50.0002 57.4993V58.7493C50.0059 58.7858 50.0134 58.8222 50.0227 58.858C50.0209 58.8905 50.0209 58.923 50.0227 58.9555L52.5227 73.9554C52.6232 74.5557 53.1415 74.9965 53.7502 74.9991H66.2501C66.8607 74.999 67.3818 74.5576 67.4826 73.9554L69.9826 58.9555C69.9844 58.923 69.9844 58.8905 69.9826 58.858C69.9902 58.8221 69.9962 58.7858 70.0001 58.7493V57.4993C70.0001 51.9765 65.5229 47.4994 60.0002 47.4994ZM65.1914 72.4991H54.809L52.7265 59.9993H67.2738L65.1914 72.4991ZM52.5002 57.4993C52.5043 53.3589 55.8597 50.0034 60.0002 49.9994C64.1406 50.0034 67.496 53.3589 67.5001 57.4993H52.5002Z" fill="#313A3A"/>
</svg>
