<svg width="40" height="40" viewBox="0 0 40 40" fill="none" xmlns="http://www.w3.org/2000/svg">
<path d="M20 8.32812C21.6094 8.33594 22.9141 7.03125 22.9141 5.41406C22.9141 3.80469 21.6094 2.5 20 2.5C18.3906 2.5 17.0859 3.80469 17.0859 5.41406C17.0859 7.02344 18.3906 8.32812 20 8.32812ZM22.9219 8.98438H17.0781C14.875 8.98438 13.4375 10.9219 13.4375 12.7656V21.6406C13.4375 23.3594 15.8594 23.3594 15.8594 21.6406V13.4375H16.3281V35.75C16.3281 38.125 19.6094 38.0469 19.6875 35.75V22.8906H20.3125V35.7578C20.4453 38.1953 23.6719 37.9609 23.6719 35.75V13.4375H24.0625V21.6406C24.0625 23.3594 26.5625 23.3594 26.5625 21.6406V12.7656C26.5625 10.9297 25.1172 8.98438 22.9219 8.98438Z"/>
</svg>
