<svg width="28" height="36" viewBox="0 0 28 36" fill="none" xmlns="http://www.w3.org/2000/svg">
<path d="M20.4957 5.83594C22.1051 5.84375 23.4098 4.53906 23.4098 2.92188C23.4098 1.3125 22.1051 0.0078125 20.4957 0.0078125C18.8864 0.0078125 17.5817 1.3125 17.5817 2.92188C17.5817 4.53125 18.8864 5.83594 20.4957 5.83594ZM23.4176 6.49219H17.5739C15.3707 6.49219 13.9332 8.42969 13.9332 10.2734V19.1484C13.9332 20.8672 16.3551 20.8672 16.3551 19.1484V10.9453H16.8239V33.2578C16.8239 35.6328 20.1051 35.5547 20.1832 33.2578V20.3984H20.8082V33.2656C20.941 35.7031 24.1676 35.4688 24.1676 33.2578V10.9453H24.5582V19.1484C24.5582 20.8672 27.0582 20.8672 27.0582 19.1484V10.2734C27.0582 8.4375 25.6129 6.49219 23.4176 6.49219Z"/>
<path d="M2.37075 9.11719L0.0738706 17.2656C-0.418317 19.0469 1.69106 19.7422 2.20668 18.0703L4.26137 10.5547H4.8395L1.30825 23.7578H4.60512V33.6797C4.60512 35.4766 7.10512 35.4766 7.10512 33.6797V23.7578H7.88637V33.6797C7.88637 35.4766 10.3082 35.4766 10.3082 33.6797V23.7578H13.6989L10.0895 10.5547H10.7457L12.8004 18.0703C13.3083 19.7813 15.402 19.0469 14.9333 17.2734L12.6364 9.11719C12.3239 8.19531 11.2145 6.57031 9.35512 6.49219H5.65981C3.73793 6.57031 2.63637 8.17969 2.37075 9.11719ZM10.3551 2.91406C10.3551 1.30469 9.07387 0 7.49575 0C5.91762 0 4.63637 1.30469 4.63637 2.91406C4.63637 4.52344 5.91762 5.82813 7.49575 5.82813C9.07387 5.82813 10.3551 4.52344 10.3551 2.91406Z"/>
</svg>
